<?xml version="1.0" standalone="no"?>
<!DOCTYPE svg PUBLIC "-//W3C//DTD SVG 20010904//EN"
 "http://www.w3.org/TR/2001/REC-SVG-20010904/DTD/svg10.dtd">
<svg version="1.0" xmlns="http://www.w3.org/2000/svg"
 width="600.000000pt" height="213.000000pt" viewBox="0 0 600.000000 213.000000"
 preserveAspectRatio="xMidYMid meet">
<metadata>
Created by potrace 1.16, written by Peter Selinger 2001-2019
</metadata>
<g transform="translate(0.000000,213.000000) scale(0.100000,-0.100000)"
fill="#000000" stroke="none">
<path d="M830 1893 c-341 -15 -507 -97 -601 -297 -58 -126 -70 -196 -76 -483
-10 -449 21 -620 141 -769 53 -67 121 -111 221 -146 111 -38 213 -48 480 -48
245 0 380 10 479 36 208 53 341 189 391 397 43 180 41 706 -4 880 -56 218
-180 341 -396 397 -121 31 -378 45 -635 33z m400 -175 c58 -29 122 -95 154
-161 l25 -52 0 35 c0 19 -8 55 -19 79 -28 60 -17 64 18 7 46 -72 50 -136 10
-183 -18 -22 -46 3 -53 49 -9 55 -30 94 -56 109 -19 10 -20 8 -14 -10 10 -32
-11 -25 -25 8 -16 41 -86 109 -135 133 l-40 19 45 -6 c25 -3 65 -16 90 -27z
m-235 -57 c63 -29 155 -109 155 -136 0 -19 -9 -15 -120 59 -99 67 -165 84
-254 68 -93 -18 -93 -32 0 -32 43 0 86 -5 94 -10 11 -7 3 -10 -29 -10 -52 0
-120 -36 -141 -74 -7 -14 -19 -26 -25 -26 -7 0 -44 -16 -83 -35 -49 -25 -88
-55 -131 -101 -34 -35 -61 -62 -61 -59 0 21 48 92 92 138 48 48 99 79 208 125
22 9 19 11 -26 11 -28 1 -68 -6 -89 -15 -20 -8 -39 -13 -41 -11 -7 7 60 63
108 91 105 61 232 67 343 17z m-79 -116 c19 -8 49 -24 66 -36 l30 -22 -26 -14
c-22 -12 -30 -11 -55 2 -45 23 -137 17 -128 -9 3 -6 -3 -19 -11 -29 -15 -16
-14 -21 2 -52 11 -19 28 -35 40 -37 20 -3 19 -4 -6 -22 -27 -17 -29 -17 -54
-1 -34 22 -57 80 -50 123 14 91 101 135 192 97z m403 -98 c74 -44 161 -127
161 -155 0 -12 -2 -22 -4 -22 -2 0 -11 -3 -20 -6 -12 -5 -16 0 -16 20 0 31
-15 34 -23 5 -4 -15 -11 -20 -21 -16 -46 18 26 -72 122 -153 51 -42 70 -66 81
-98 12 -39 12 -45 -5 -64 -14 -15 -16 -22 -6 -25 6 -3 12 -12 12 -22 0 -28
-24 -52 -60 -61 l-35 -8 32 -1 c42 -1 49 -15 21 -40 -14 -14 -29 -19 -42 -15
-23 8 -66 34 -66 41 0 17 46 85 80 118 75 72 75 72 -66 71 -68 -1 -124 -3
-124 -5 0 -2 23 -24 50 -50 42 -39 50 -53 50 -82 0 -19 -6 -43 -12 -52 -17
-22 -111 -57 -153 -57 -40 0 -90 38 -97 75 -6 29 -2 30 45 10 22 -9 64 -15
104 -14 l68 1 -68 14 c-94 18 -161 49 -153 70 3 8 6 20 6 25 0 13 37 11 63 -3
35 -18 137 -47 137 -38 0 14 -52 43 -120 67 -39 14 -64 28 -62 35 7 29 51 60
91 65 41 6 41 6 35 42 -9 59 -11 61 -52 61 -45 0 -57 11 -67 60 -4 19 -14 44
-22 55 -14 19 -14 18 -9 -10 l7 -31 -68 3 c-60 2 -65 1 -42 -10 14 -6 38 -22
53 -34 16 -13 39 -23 50 -23 16 0 27 -11 39 -35 21 -44 21 -59 1 -76 -8 -7
-27 -36 -42 -63 -20 -40 -26 -67 -27 -121 l-2 -70 -28 2 c-39 3 -65 30 -65 67
0 34 16 63 63 114 37 38 18 43 -28 7 -35 -26 -45 -24 -45 9 0 23 -26 66 -39
66 -5 0 -8 -11 -8 -25 0 -17 -18 -45 -49 -79 -27 -30 -52 -54 -57 -55 -13 -2
4 80 35 172 33 99 33 128 -1 74 -12 -21 -49 -60 -82 -89 -118 -102 -165 -214
-156 -371 3 -51 8 -103 13 -116 15 -49 -15 -10 -36 47 -34 90 -38 186 -9 274
21 66 31 81 119 173 56 58 114 131 139 174 24 40 58 90 76 110 l33 36 -102 -2
c-94 -1 -97 0 -46 9 30 5 94 18 141 29 109 24 121 24 192 -5 l57 -24 -21 35
-22 35 24 -7 c13 -4 48 -21 78 -38z m-729 -95 c-14 -9 -44 -35 -68 -56 -35
-32 -40 -41 -28 -48 10 -6 29 -2 55 12 59 30 72 24 20 -9 -24 -15 -58 -44 -76
-62 -33 -35 -93 -141 -93 -164 0 -8 -5 -17 -11 -21 -16 -9 -3 125 18 190 19
58 78 122 143 153 54 26 75 29 40 5z m59 -158 l-24 -26 40 19 c81 41 90 36 25
-14 -87 -66 -137 -160 -149 -278 l-7 -80 -13 45 c-9 29 -11 73 -8 123 5 71 4
77 -9 58 -51 -72 -73 -179 -56 -271 6 -30 9 -57 6 -59 -7 -7 -26 53 -36 116
-19 113 25 275 94 340 l30 28 -21 -40 c-12 -22 -21 -49 -21 -59 0 -15 7 -10
30 21 29 39 57 62 110 90 35 18 37 16 9 -13z m177 -226 c-51 -124 -59 -224
-26 -332 22 -71 62 -130 148 -218 31 -32 54 -60 51 -62 -8 -8 -175 130 -200
165 -12 17 -33 57 -45 88 -28 67 -32 190 -9 267 14 49 92 170 102 160 3 -3 -6
-34 -21 -68z m158 -67 c-25 -92 -16 -155 46 -302 53 -125 68 -186 56 -233 -9
-35 -26 -33 -26 2 0 15 -20 60 -47 102 -102 165 -128 254 -100 349 14 50 75
156 84 147 3 -2 -3 -32 -13 -65z m-464 -152 c39 -108 102 -187 235 -297 l40
-33 -65 33 c-144 74 -234 195 -245 329 -6 71 0 65 35 -32z m951 12 c20 -21 29
-39 29 -63 0 -18 3 -44 6 -58 5 -23 4 -24 -9 -7 -14 17 -16 16 -26 -15 -9 -24
-14 -29 -20 -19 -7 10 -10 10 -16 1 -6 -9 -9 -9 -15 0 -5 7 -12 3 -24 -14 -22
-34 -33 -33 -41 4 -4 17 -11 30 -16 30 -6 0 -7 -9 -4 -20 4 -11 2 -20 -4 -20
-6 0 -11 4 -11 10 0 5 -6 7 -14 4 -8 -3 -17 -1 -20 5 -4 6 -13 8 -20 5 -9 -3
-17 3 -21 15 -3 12 -12 21 -20 21 -13 0 -45 57 -45 80 0 7 10 10 28 6 18 -4
60 6 122 28 52 19 99 34 103 35 5 0 22 -12 38 -28z m-350 -108 c89 -126 75
-275 -34 -368 -46 -40 -63 -38 -25 3 88 94 95 210 19 360 -15 31 -31 68 -35
82 -7 24 -6 24 19 -5 14 -16 40 -49 56 -72z"/>
<path d="M3736 1811 c-8 -12 -8 -10 0 -358 l7 -303 23 0 c32 0 44 28 44 99 0
39 4 61 11 61 7 0 87 -17 178 -37 187 -41 244 -46 249 -22 2 12 -13 18 -70 29
-72 12 -327 86 -340 99 -4 3 42 41 102 84 60 43 128 97 152 120 41 40 42 42
19 45 -17 3 -64 -24 -165 -93 l-141 -96 -7 48 c-3 26 -7 72 -7 102 -2 100 -23
231 -37 231 -7 0 -15 -4 -18 -9z"/>
<path d="M2273 1710 c-99 -49 -172 -151 -207 -287 -30 -116 -15 -178 58 -238
33 -26 45 -30 99 -30 65 1 111 20 207 84 l45 31 3 -86 c3 -91 10 -102 56 -90
23 6 23 7 28 183 3 98 9 186 13 195 4 10 22 23 41 30 22 8 34 18 32 28 -4 19
-68 16 -246 -10 -114 -17 -172 -37 -172 -60 0 -18 17 -18 105 0 50 9 105 20
123 23 l32 7 0 -84 c0 -83 -1 -85 -32 -112 -48 -40 -136 -77 -194 -82 -101 -8
-152 49 -140 159 17 169 141 310 295 337 65 11 55 27 -19 30 -56 2 -74 -1
-127 -28z"/>
<path d="M2903 1571 c-52 -13 -118 -57 -146 -98 -79 -114 -74 -242 11 -295 52
-32 168 -37 246 -9 83 29 154 87 132 108 -3 3 -50 -9 -103 -28 -67 -23 -116
-33 -156 -33 -54 -1 -61 2 -88 32 -35 39 -36 53 -5 89 24 28 26 28 166 33 134
5 143 6 161 29 41 50 17 106 -61 146 -56 28 -111 37 -157 26z m125 -61 c41
-19 57 -50 32 -65 -40 -25 -265 -26 -257 -2 6 19 54 49 108 68 67 23 65 23
117 -1z"/>
<path d="M3390 1565 c-102 -32 -182 -143 -184 -255 -1 -71 19 -104 85 -138 65
-34 179 -28 271 15 62 29 110 75 94 90 -4 4 -48 -7 -99 -24 -155 -53 -203 -55
-251 -6 -33 33 -33 63 0 94 24 22 35 24 164 29 153 5 163 9 175 68 6 29 2 37
-32 71 -26 26 -57 44 -93 55 -63 19 -71 19 -130 1z m160 -65 c36 -25 37 -48 3
-61 -30 -12 -229 -17 -240 -6 -14 15 44 58 101 76 66 21 97 19 136 -9z"/>
<path d="M4513 1560 c-105 -21 -223 -108 -223 -165 0 -14 13 -39 29 -57 32
-36 36 -36 202 -23 102 9 116 -1 73 -46 -29 -31 -155 -99 -181 -99 -10 0 -13
-6 -9 -16 3 -9 6 -18 6 -20 0 -14 57 1 116 30 122 61 197 142 174 186 -15 28
-50 34 -154 25 -167 -14 -181 -13 -184 13 -3 16 8 35 35 61 57 57 148 73 261
44 19 -4 22 -1 22 26 0 25 -6 34 -26 41 -29 12 -81 11 -141 0z"/>
<path d="M2973 965 c-156 -48 -230 -169 -221 -359 6 -126 50 -205 133 -236 50
-19 151 -14 191 9 45 27 54 26 54 -4 0 -21 5 -25 30 -25 17 0 39 9 50 20 18
18 20 33 20 138 0 76 5 131 15 157 24 67 27 65 -108 65 -137 0 -148 -5 -162
-67 l-6 -32 73 -3 73 -3 3 -50 c3 -45 0 -54 -27 -79 -39 -37 -126 -48 -167
-21 -77 50 -85 235 -14 335 35 50 87 70 178 70 74 0 80 2 86 23 10 38 7 65
-10 71 -27 10 -147 5 -191 -9z"/>
<path d="M3370 777 l-35 -12 -3 -204 -2 -204 41 6 c23 3 46 11 50 19 5 7 9 57
9 110 0 86 3 100 23 123 12 14 42 31 67 38 l45 13 3 52 c2 38 -1 52 -10 52
-23 -1 -92 -36 -108 -55 -14 -17 -15 -15 -20 25 -6 50 -12 53 -60 37z"/>
<path d="M4058 779 l-27 -10 -3 -205 -3 -204 25 0 c70 1 70 1 70 127 0 113 0
115 29 144 36 36 56 37 77 4 13 -21 16 -44 12 -125 -5 -109 -3 -113 53 -101
l34 7 5 112 c5 121 10 132 61 132 40 0 49 -34 49 -180 l0 -130 40 0 c58 0 63
17 58 179 -7 198 -41 264 -130 247 -19 -3 -47 -20 -63 -36 l-28 -29 -29 24
c-38 32 -75 32 -122 0 -20 -14 -39 -25 -41 -25 -3 0 -5 18 -5 40 0 44 -9 48
-62 29z"/>
<path d="M4653 778 c-23 -11 -23 -13 -23 -215 l0 -203 26 0 c58 0 64 11 64
123 0 112 10 143 52 167 25 13 29 13 45 -3 15 -15 18 -36 18 -130 l0 -112 33
1 c62 3 62 4 62 117 0 114 10 137 62 137 39 0 48 -35 48 -180 l0 -130 40 0
c58 0 63 17 58 179 -7 198 -41 264 -130 247 -19 -3 -47 -20 -63 -36 l-28 -29
-29 24 c-38 32 -75 32 -122 0 -20 -14 -39 -25 -41 -25 -3 0 -5 18 -5 40 0 35
-3 40 -22 39 -13 0 -33 -5 -45 -11z"/>
<path d="M5643 779 c-18 -5 -34 -15 -35 -22 -1 -7 -2 -99 -2 -204 l-1 -193 31
0 c58 0 65 15 65 124 0 98 0 99 33 132 19 19 48 35 68 39 25 5 38 13 42 28 9
34 7 75 -4 82 -17 10 -75 -13 -100 -40 -33 -35 -40 -31 -40 20 0 48 -2 50 -57
34z"/>
<path d="M3662 755 c-22 -49 -17 -55 47 -55 66 0 115 -14 109 -32 -2 -6 -28
-17 -58 -25 -109 -28 -160 -81 -160 -166 0 -40 5 -54 28 -77 45 -45 91 -48
197 -15 16 5 23 0 32 -26 11 -27 16 -31 39 -25 14 4 37 14 50 23 20 13 22 18
12 31 -9 10 -15 63 -18 151 -5 112 -9 143 -26 171 -29 51 -74 70 -165 70 -72
0 -76 -1 -87 -25z"/>
<path d="M5319 747 c-24 -13 -57 -43 -74 -66 -28 -40 -30 -49 -30 -130 0 -80
2 -91 27 -123 39 -51 100 -72 184 -65 76 6 92 17 101 72 6 35 4 38 -13 30 -35
-14 -120 -18 -144 -5 -22 12 -22 13 24 35 107 51 164 154 126 226 -28 51 -128
64 -201 26z"/>
</g>
</svg>
